<?xml version="1.0" encoding="utf-8"?>
<!-- Generator: Adobe Illustrator 27.3.1, SVG Export Plug-In . SVG Version: 6.00 Build 0)  -->
<svg version="1.1" id="Layer_1" xmlns="http://www.w3.org/2000/svg" xmlns:xlink="http://www.w3.org/1999/xlink" x="0px" y="0px"
	 viewBox="0 0 1042 296" style="enable-background:new 0 0 1042 296;" xml:space="preserve">
<style type="text/css">
	.st0{fill:#FFFFFF;}
	.st1{fill:#226DB4;}
</style>
<g>
	<g>
		<path d="M431,224.1c-7.1,21.8-27.7,33.2-49.9,33.2c-37,0-57.4-23.5-57.4-59.6c0-33,22.9-58.5,56.8-58.5c21.7,0,40.7,10.4,49.4,31
			l-18.4,7.8c-4.9-12.6-16.2-21.4-30.1-21.4c-24.3,0-34.4,20.8-34.4,42c0,22.1,11,41,34.9,41c15.1,0,26.1-9.2,31.3-23L431,224.1z"/>
		<path d="M446.6,140.8h41.6c23,0,43.2,8.5,43.2,34.5c0,16.4-9.8,27-25.4,30.8l32.3,49.5h-24l-29.9-46.3h-15.5v46.3h-22.3V140.8z
			 M487.6,194c12.8,0,22.2-4.9,22.2-18.6c0-14.2-10-17.6-22.2-17.6h-18.7V194H487.6z"/>
		<path d="M553,140.8h28.2l33.1,83.7l32.9-83.7h27.5v114.9h-20.6v-87.6l-36.2,87.6h-9.9l-35-87.6v87.6H553V140.8z"/>
		<path d="M733.5,140.8h39.9c24.2,0,43.1,9.7,43.1,36.2c0,29.1-23,35.4-47.6,35.4h-13.2v43.3h-22.3V140.8z M773.3,196.4
			c13.7,0,21.5-5.7,21.5-19.5c0-14.4-8.5-19.1-21.5-19.1h-17.5v38.7H773.3z"/>
		<path d="M832.1,137.6l20.1-8.7v126.8h-20.1V137.6z"/>
		<path d="M931.1,242.5c-5.3,10.2-16.1,14.8-27.7,14.8c-19.3,0-29.5-12.7-29.5-31.8v-53.8H894V223c0,11.5,5.3,18.5,17,18.5
			c12.6,0,20.2-8.1,20.2-20.1v-49.8h20v84h-20V242.5z"/>
		<path d="M982.1,230.6c3.1,8.2,11.7,12.2,20.8,12.2c6.5,0,14.6-2,14.6-10c0-8.4-9.1-10.4-19.5-12.6c-13.5-2.8-28.6-6.1-28.6-25
			c0-17.3,16.1-25.5,31.3-25.5c13.3,0,28.6,5,34.1,18.3l-14.9,6.4c-3.3-7.5-11.5-10.3-18.4-10.3c-6.7,0-13.1,2.7-13.1,9.5
			c0,7.7,8.2,9.3,18.4,11.3c13.7,2.7,30.1,5.8,30.1,25.4c0,19.8-16.6,26.8-34.1,26.8c-14.8,0-30.8-5-36-20.1L982.1,230.6z"/>
	</g>
	<g>
		<path d="M329.6,104.4l37-53.4h-33.2V40.5H384v5.2l-36.1,53.4h35v10.5h-53.3V104.4z"/>
		<path d="M415.7,58c15.4,0,27.2,10.8,27.2,26.3c0,15.9-12.4,26.4-27.7,26.4c-15.4,0-27.8-10.7-27.8-26.1
			C387.4,68.6,400.5,58,415.7,58z M429.9,84.3c0-9.3-4.7-17.1-14.7-17.1c-10.2,0-14.3,8.1-14.3,17.4c0,9,4.8,16.6,14.6,16.6
			C425.6,101.3,429.9,93.2,429.9,84.3z"/>
		<path d="M451.7,36.1h12.1v31c3.3-6.3,9.9-9.1,16.9-9.1c12.1,0,18.2,8.5,18.2,20v31.7h-12.2V79.2c0-7.3-3.8-11.3-10.8-11.3
			c-7.8,0-12.1,4.8-12.1,12v29.7h-12.1V36.1z"/>
		<path d="M535,58c15.4,0,27.2,10.8,27.2,26.3c0,15.9-12.4,26.4-27.7,26.4c-15.4,0-27.8-10.7-27.8-26.1C506.7,68.6,519.8,58,535,58z
			 M549.2,84.3c0-9.3-4.7-17.1-14.7-17.1c-10.2,0-14.3,8.1-14.3,17.4c0,9,4.8,16.6,14.6,16.6C545,101.3,549.2,93.2,549.2,84.3z"/>
	</g>
</g>
<path class="st1" d="M265,78.2c-0.1-1.7-1-3.7-2.8-4.8L141.5,3.8c-1.8-1-3.9-1-5.7,0L15.2,73.4c-1.5,0.9-2.9,2.7-2.8,4.9v139.3
	c0,2,1.1,3.9,2.8,4.9l120.7,69.7c1.4,0.8,3.6,1.2,5.7,0l120.7-69.6c1.8-1,2.8-2.9,2.8-4.9V78.4C265,78.3,265,78.2,265,78.2z
	 M174.2,161.9c-0.1,0-0.1-0.1-0.1-0.1c-0.1-0.1-0.2-0.1-0.3-0.1c-0.1,0-0.2-0.1-0.3-0.1c-0.1,0-0.2-0.1-0.3-0.1
	c-0.1,0-0.2-0.1-0.3-0.1c-0.1,0-0.1-0.1-0.2-0.1c-0.1,0-0.2-0.1-0.3-0.1c-0.1,0-0.1,0-0.2,0c-0.1,0-0.2,0-0.3,0c-0.1,0-0.2,0-0.3,0
	c-0.1,0-0.2,0-0.3,0s-0.2,0-0.3,0c-0.1,0-0.2,0-0.2,0c-0.1,0-0.2,0-0.3,0c-0.1,0-0.1,0-0.2,0c-0.1,0-0.2,0.1-0.3,0.1
	c-0.1,0-0.1,0-0.2,0.1c-0.1,0-0.2,0.1-0.3,0.1c-0.1,0-0.2,0.1-0.3,0.1c-0.1,0-0.2,0.1-0.3,0.1c-0.1,0.1-0.2,0.1-0.3,0.1
	c-0.1,0-0.1,0.1-0.1,0.1L121,189.2l0,0l0,0c-4.8,2.8-10,2.7-16.1-0.4c-1.4-0.7-2.7-1.5-3.8-2.3l40.8-33.9l111.7-64.5v119.4
	L174.2,161.9z M138.7,15.2L248,78.4l-61.2,35.3c-0.3-0.3-0.6-0.5-1-0.7l-44.3-25.6c-1.8-1-3.9-1-5.7,0L91,113.3
	c-0.1,0.1-0.3,0.2-0.4,0.3L29.4,78.4L138.7,15.2z M23.7,88.2l91.9,52.8c0.9,0.5,1.9,0.8,2.8,0.8c2,0,3.9-1,4.9-2.8
	c1.6-2.7,0.6-6.2-2.1-7.8L102,120.1l36.7-21.2l36.9,21.3l-39.7,22.9c-0.3,0.2-0.5,0.3-0.8,0.5l-46.4,38.5c-0.1,0-0.1,0.1-0.1,0.1
	c-0.1,0-0.1,0.1-0.1,0.1c0,0-0.1,0.1-0.1,0.1c-0.1,0.1-0.1,0.1-0.2,0.2c-0.1,0.1-0.1,0.1-0.2,0.2c-0.1,0.1-0.1,0.2-0.2,0.2
	c-0.1,0.1-0.1,0.1-0.1,0.2c-0.1,0.1-0.1,0.2-0.1,0.3c-0.1,0.1-0.1,0.1-0.1,0.2c0,0.1-0.1,0.2-0.1,0.3c0,0.1-0.1,0.2-0.1,0.3
	c0,0.1-0.1,0.2-0.1,0.3c0,0.1-0.1,0.2-0.1,0.3c0,0.1-0.1,0.2-0.1,0.3c0,0.1-0.1,0.2-0.1,0.3c0,0.1,0,0.2-0.1,0.3c0,0.1,0,0.2,0,0.3
	c0,0.1,0,0.2,0,0.3c0,0.1,0,0.2,0,0.3c0,0.1,0,0.2,0,0.3c0,0.1,0,0.2,0,0.3c0,0.1,0,0.2,0,0.3c0,0.1,0,0.2,0,0.3
	c0,0.1,0,0.2,0.1,0.3c0,0.1,0,0.2,0.1,0.3c0,0.1,0.1,0.2,0.1,0.3c0,0.1,0.1,0.2,0.1,0.3c0,0.1,0.1,0.2,0.1,0.3
	c0,0.1,0.1,0.2,0.1,0.3s0.1,0.1,0.1,0.2c0.1,0.1,0.1,0.2,0.2,0.3c0.1,0.1,0.1,0.1,0.1,0.2c0.1,0.1,0.1,0.2,0.2,0.3
	c0,0,0,0.1,0.1,0.1c0.1,0.1,0.1,0.2,0.2,0.3l0,0c0.2,0.2,4.7,4.9,11.4,8.4c4.9,2.5,9.7,3.7,14.3,3.7c4.5,0,8.8-1.2,12.9-3.5l0,0
	l44.7-25.7l76.8,44.2l-29.1,16.8c-0.2-0.1-49.5-28.7-49.5-28.7c-2.7-1.6-6.2-0.7-7.8,2.1c-1.6,2.7-0.7,6.2,2.1,7.8l43.9,25.4
	l-28.7,16.6c-0.1-0.1-50-28.7-50-28.7c-2.7-1.6-6.2-0.6-7.8,2.1c-1.6,2.7-0.6,6.2,2.1,7.8l44.3,25.4l-29,16.7l-115-66.4V88.2z"/>
</svg>
