<?xml version="1.0" encoding="utf-8"?>
<!-- Generator: Adobe Illustrator 27.3.1, SVG Export Plug-In . SVG Version: 6.00 Build 0)  -->
<svg version="1.1" id="Layer_1" xmlns="http://www.w3.org/2000/svg" xmlns:xlink="http://www.w3.org/1999/xlink" x="0px" y="0px"
	 viewBox="0 0 644 296" style="enable-background:new 0 0 644 296;" xml:space="preserve">
<style type="text/css">
	.st0{fill:#FFFFFF;}
	.st1{fill:#E42527;}
	.st2{fill:#F9B21D;}
	.st3{fill:#226DB4;}
	.st4{fill:#089949;}
</style>
<g>
	<g>
		<path d="M324,197.8c0-33.9,25-58.6,59.6-58.6s58,24.7,58,58.9c0,34.7-24.2,59.2-59,59.2C347.7,257.2,324,232.7,324,197.8z
			 M418.4,198.2c0-22.5-11.8-41.4-36.2-41.4c-24.6,0-35.1,19.1-35.1,42.1c0,21.6,12.9,40.7,36.5,40.7
			C407.9,239.6,418.4,219.5,418.4,198.2z"/>
		<path d="M458.5,171.6h20.1V185c5.4-10.4,16.7-15.1,28.4-15.1c20.2,0,29.3,14.2,29.3,33.3v52.6h-20.4v-50.6
			c0-11.8-5.3-18.7-17.2-18.7c-12.6,0-20.1,7.8-20.1,19.9v49.4h-20.1V171.6z"/>
		<path d="M632.4,237.4c-7,14.8-22.1,19.9-37.5,19.9c-26.5,0-43.2-17.7-43.2-43.9c0-24.6,17-43.6,42.3-43.6
			c27.2,0,40.4,15.9,40.4,48.3h-62.2c0,14.2,8.2,24.6,23.5,24.6c9.1,0,16.6-3.7,21-12.2L632.4,237.4z M614.4,204.9
			c-0.6-12.7-8.3-20.5-20.2-20.5c-12.6,0-20,8.9-21.7,20.5H614.4z"/>
	</g>
	<g>
		<path d="M330,104.4L367,51h-33.2V40.5h50.6v5.2l-36.1,53.4h35v10.5H330V104.4z"/>
		<path d="M416,58c15.4,0,27.2,10.8,27.2,26.3c0,15.9-12.4,26.4-27.7,26.4c-15.4,0-27.8-10.7-27.8-26.1C387.7,68.6,400.8,58,416,58z
			 M430.2,84.3c0-9.3-4.7-17.1-14.7-17.1c-10.2,0-14.3,8.1-14.3,17.4c0,9,4.8,16.6,14.6,16.6C426,101.3,430.2,93.2,430.2,84.3z"/>
		<path d="M452.1,36.1h12.1v31c3.3-6.3,9.9-9.1,16.9-9.1c12.1,0,18.2,8.5,18.2,20v31.7H487V79.2c0-7.3-3.8-11.3-10.8-11.3
			c-7.8,0-12.1,4.8-12.1,12v29.7h-12.1V36.1z"/>
		<path d="M535.4,58c15.4,0,27.2,10.8,27.2,26.3c0,15.9-12.4,26.4-27.7,26.4c-15.4,0-27.8-10.7-27.8-26.1
			C507.1,68.6,520.2,58,535.4,58z M549.6,84.3c0-9.3-4.7-17.1-14.7-17.1c-10.2,0-14.3,8.1-14.3,17.4c0,9,4.8,16.6,14.6,16.6
			C545.3,101.3,549.6,93.2,549.6,84.3z"/>
	</g>
</g>
<g>
	<g>
		<path class="st1" d="M139.1,293c-2,0-3.9-1-4.9-2.8c-1.6-2.7-0.6-6.2,2.1-7.8l117.8-68V78.3c0-3.2,2.6-5.7,5.7-5.7
			s5.7,2.5,5.7,5.7v139.3c0,2-1.1,3.9-2.8,4.9l-120.7,69.7C141,292.7,140,293,139.1,293z"/>
	</g>
	<g>
		<path class="st2" d="M139.1,293c-1,0-1.9-0.3-2.8-0.8L15.6,222.6c-1.8-1-2.8-2.9-2.8-4.9V78.4c0-3.2,2.5-5.7,5.7-5.7
			s5.7,2.5,5.7,5.7v136.1l117.8,68c2.7,1.6,3.6,5.1,2.1,7.8C142.9,292,141,293,139.1,293z"/>
	</g>
	<g>
		<path class="st3" d="M259.7,84c-1,0-1.9-0.3-2.8-0.8l-117.8-68l-117.8,68c-2.7,1.6-6.2,0.6-7.8-2.1c-1.6-2.7-0.6-6.2,2.1-7.8
			L136.2,3.8c1.8-1,3.9-1,5.7,0l120.7,69.6c2.7,1.6,3.6,5.1,2.1,7.8C263.6,83,261.7,84,259.7,84z"/>
	</g>
	<g>
		<path class="st1" d="M139.1,209.4c-2,0-3.9-1-4.9-2.8c-1.6-2.7-0.6-6.2,2.1-7.8l45.4-26.2v-52.5c0-3.1,2.6-5.7,5.7-5.7
			s5.7,2.6,5.7,5.7v55.7c0,2-1.1,3.9-2.8,4.9l-48.3,27.9C141,209.2,140,209.4,139.1,209.4z"/>
	</g>
	<g>
		<path class="st2" d="M139.1,209.4c-1,0-1.9-0.3-2.8-0.8L88,180.8c-1.8-1-2.8-2.9-2.8-4.9v-55.7c0-3.1,2.6-5.7,5.7-5.7
			c3.1,0,5.7,2.6,5.7,5.7v52.4l45.4,26.2c2.7,1.6,3.6,5.1,2.1,7.8C142.9,208.4,141,209.4,139.1,209.4z"/>
	</g>
	<g>
		<path class="st3" d="M187.3,125.8c-1,0-1.9-0.3-2.8-0.8l-45.4-26.2L93.6,125c-2.7,1.6-6.2,0.6-7.8-2.1c-1.6-2.7-0.6-6.2,2.1-7.8
			l48.3-27.9c1.8-1,3.9-1,5.7,0l48.3,27.9c2.7,1.6,3.6,5.1,2.1,7.8C191.2,124.8,189.3,125.8,187.3,125.8z"/>
	</g>
	<g>
		<path class="st4" d="M139.1,153.7c-1,0-1.9-0.3-2.8-0.8L15.6,83.3c-2.7-1.6-3.6-5.1-2.1-7.8c1.6-2.7,5.1-3.6,7.8-2.1l120.7,69.6
			c2.7,1.6,3.6,5.1,2.1,7.8C142.9,152.7,141,153.7,139.1,153.7z"/>
	</g>
	<g>
		<path class="st4" d="M139.1,153.7c-2,0-3.9-1-4.9-2.8c-1.6-2.7-0.6-6.2,2.1-7.8l120.7-69.6c2.7-1.6,6.2-0.6,7.8,2.1
			s0.6,6.2-2.1,7.8l-120.7,69.6C141,153.4,140,153.7,139.1,153.7z"/>
	</g>
	<g>
		<path class="st4" d="M139.1,293c-3.1,0-5.7-2.6-5.7-5.7V148c0-3.1,2.6-5.7,5.7-5.7s5.7,2.6,5.7,5.7v139.3
			C144.7,290.4,142.2,293,139.1,293z"/>
	</g>
</g>
</svg>
